<?xml version="1.0" standalone="no"?>
<!DOCTYPE svg PUBLIC "-//W3C//DTD SVG 20010904//EN"
 "http://www.w3.org/TR/2001/REC-SVG-20010904/DTD/svg10.dtd">
<svg version="1.0" xmlns="http://www.w3.org/2000/svg"
 width="512.000000pt" height="512.000000pt" viewBox="0 0 512.000000 512.000000"
 preserveAspectRatio="xMidYMid meet">

<g transform="translate(0.000000,512.000000) scale(0.100000,-0.100000)"
fill="#000000" stroke="none">
<path d="M1705 4106 c-17 -7 -39 -26 -49 -42 -11 -15 -305 -586 -654 -1268
-349 -683 -638 -1245 -642 -1249 -4 -5 -24 34 -44 87 -41 105 -80 150 -140
161 -84 16 -176 -60 -176 -144 0 -33 190 -546 218 -589 36 -55 -101 -52 2335
-52 1240 0 2269 3 2286 6 60 12 81 47 184 315 54 140 97 267 97 283 0 46 -39
104 -85 126 -54 26 -89 25 -140 -4 -34 -20 -47 -37 -69 -88 -15 -35 -33 -76
-39 -91 -12 -27 -40 27 -656 1230 -354 692 -650 1268 -658 1280 -36 54 -11 53
-910 53 -665 -1 -834 -3 -858 -14z m2201 -1538 l641 -1253 -273 -3 c-151 -1
-398 -1 -549 0 l-275 3 60 125 c47 97 60 134 60 171 0 87 -73 155 -159 146
-65 -7 -90 -32 -151 -150 l-56 -107 -589 1151 c-325 634 -591 1156 -593 1161
-2 4 277 8 620 8 l623 0 641 -1252z m-1537 -94 c325 -636 591 -1158 591 -1160
0 -3 -77 -3 -170 -2 l-171 3 -355 695 c-196 382 -362 705 -370 718 -22 35 -74
62 -117 62 -59 0 -104 -26 -135 -79 -15 -25 -182 -349 -372 -721 l-345 -675
-173 -3 -173 -2 183 358 c785 1535 1004 1962 1009 1962 3 0 272 -520 598
-1156z m-92 -1151 c4 -10 -101 -13 -507 -13 l-512 0 153 298 c83 163 199 388
256 500 l105 203 250 -488 c138 -268 253 -494 255 -500z"/>
</g>
</svg>
